<?xml version="1.0" encoding="utf-8"?>
<!-- Generator: Adobe Illustrator 22.0.1, SVG Export Plug-In . SVG Version: 6.00 Build 0)  -->
<svg version="1.1" id="Layer_1" xmlns="http://www.w3.org/2000/svg" xmlns:xlink="http://www.w3.org/1999/xlink" x="0px" y="0px"
	 viewBox="0 0 30 30" style="enable-background:new 0 0 30 30;" xml:space="preserve">
<style type="text/css">
	.st0{fill:#019DF1;}
	.st1{fill:#04C7F6;}
	.st2{fill:#0C277A;}
</style>
<g>
	<path class="st0" d="M13.7,23.4c-0.2,0-0.4,0.1-0.6,0.2c-0.2,0.2-0.2,0.3-0.2,0.6c0,0.2,0.1,0.4,0.2,0.6c0.2,0.2,0.4,0.2,0.6,0.2
		c0.2,0,0.4-0.1,0.6-0.2c0.2-0.2,0.2-0.3,0.2-0.6c0-0.2-0.1-0.4-0.2-0.6C14.1,23.5,13.9,23.4,13.7,23.4z"/>
	<path class="st1" d="M13.3,25.7c-0.2-0.1-0.4,0-0.6,0.1c-0.2,0.1-0.3,0.3-0.4,0.5l-0.1,0.6c0,0.1,0,0.2,0,0.2c0,0.2,0,0.3,0.2,0.5
		c0.1,0.2,0.3,0.3,0.5,0.3c0.1,0,0.2,0,0.2,0c0.4,0,0.7-0.2,0.8-0.6l0.1-0.6c0.1-0.3,0-0.5-0.1-0.7C13.7,25.9,13.5,25.8,13.3,25.7z"
		/>
	<path class="st1" d="M14.8,20.2c-0.2-0.1-0.4,0-0.6,0.1c-0.2,0.1-0.3,0.3-0.4,0.5l-0.2,0.9c0,0.1,0,0.2,0,0.3c0,0.2,0,0.3,0.1,0.5
		c0.1,0.2,0.2,0.3,0.5,0.3c0.2,0.1,0.4,0,0.6-0.1c0.2-0.1,0.3-0.3,0.4-0.6l0.3-0.9c0.1-0.2,0-0.4-0.1-0.6S15,20.2,14.8,20.2z"/>
	<path class="st2" d="M25.7,11.6c0-1-0.2-1.8-0.7-2.6c-0.5-0.8-1.1-1.5-1.9-1.9c-0.8-0.5-1.7-0.7-2.6-0.7c-0.7,0-1.4,0.2-2.1,0.5
		C17.7,7,17.1,7.5,16.6,8c-0.8-0.4-1.7-0.7-2.7-0.7c-1.4,0-2.7,0.4-3.8,1.3C9,9.5,8.3,10.7,8,12c-1.1,0.3-2,0.8-2.7,1.7
		c-0.7,0.9-1.1,1.9-1.1,3.1c0,1.1,0.3,2.1,1,3s1.5,1.5,2.6,1.8l-0.7,1.7c0,0.1,0,0.2,0.1,0.2h2.1L8,27.8h0.3l4.4-5.7
		c0,0,0-0.1,0-0.1c0,0-0.1-0.1-0.1-0.1h-2.2l2.5-4.7c0.1-0.1,0-0.2-0.1-0.2h-3c-0.1,0-0.2,0-0.2,0.1l-1.1,2.9
		c-0.7-0.2-1.3-0.6-1.8-1.2c-0.5-0.6-0.7-1.3-0.7-2c0-0.8,0.3-1.6,0.8-2.2s1.3-1,2.1-1.1l0.5,0c0.1,0,0.2,0,0.2-0.1l0.1-0.6
		c0.1-1.1,0.6-2,1.4-2.7C11.8,9.4,12.8,9,13.9,9c1.1,0,2,0.4,2.9,1.1c0.8,0.7,1.3,1.6,1.4,2.7l0.1,0.6c0,0.1,0.1,0.2,0.2,0.2H20
		c0.9,0,1.7,0.3,2.3,1c0.6,0.6,1,1.4,1,2.3c0,0.9-0.3,1.6-0.9,2.3c-0.6,0.6-1.3,1-2.2,1c-0.1,0-0.2,0.1-0.2,0.2v1.3
		c0,0.1,0.1,0.2,0.2,0.2c0.9,0,1.7-0.3,2.4-0.7c0.7-0.5,1.3-1.1,1.7-1.8s0.6-1.6,0.6-2.5c0-0.7-0.1-1.4-0.4-2
		C25.3,13.9,25.7,12.8,25.7,11.6z M23.5,13.4c-1-1-2.1-1.4-3.5-1.4h-0.3C19.4,10.8,18.8,9.8,18,9c0.7-0.6,1.5-1,2.5-1
		c1,0,1.8,0.3,2.5,1c0.7,0.7,1,1.5,1,2.5C24,12.2,23.9,12.8,23.5,13.4z"/>
	<path class="st1" d="M17.5,22.6c-0.2-0.1-0.5,0-0.7,0.1c-0.2,0.1-0.3,0.3-0.4,0.5l-0.1,0.6c0,0,0,0,0,0.1c0,0.1,0,0.1,0,0.2
		c0,0.2,0,0.3,0.2,0.5c0.1,0.2,0.2,0.3,0.5,0.3c0,0,0.1,0,0.1,0c0.1,0,0.1,0,0.1,0c0.4,0,0.7-0.2,0.8-0.7l0.1-0.6
		c0.1-0.2,0.1-0.4-0.1-0.6C17.8,22.8,17.7,22.7,17.5,22.6z"/>
	<path class="st0" d="M17.8,20.3c-0.2,0-0.4,0.1-0.6,0.2C17,20.7,17,20.9,17,21.1c0,0.2,0.1,0.4,0.2,0.6c0.2,0.2,0.3,0.2,0.6,0.2
		s0.4-0.1,0.6-0.2c0.2-0.2,0.2-0.4,0.2-0.6c0-0.2-0.1-0.4-0.2-0.6C18.2,20.4,18,20.3,17.8,20.3z"/>
</g>
</svg>
